<svg xmlns="http://www.w3.org/2000/svg" width="1920" height="1080"><path d="M-33,1245L-119,1249L307,1253Z" fill="#757575" stroke="#757575" stroke-width="1.51"/><path d="M-152,-170L231,-150L451,-161Z" fill="#f2f2f2" stroke="#f2f2f2" stroke-width="1.51"/><path d="M-152,-170L451,-161L787,-172Z" fill="#ebebeb" stroke="#ebebeb" stroke-width="1.51"/><path d="M662,1221L422,1238L1115,1247Z" fill="#5b5b5b" stroke="#5b5b5b" stroke-width="1.51"/><path d="M422,1238L307,1253L1115,1247Z" fill="#616161" stroke="#616161" stroke-width="1.51"/><path d="M1115,1247L307,1253L1376,1259Z" fill="#4e4e4e" stroke="#4e4e4e" stroke-width="1.51"/><path d="M1217,1247L1115,1247L1376,1259Z" fill="#3d3d3d" stroke="#3d3d3d" stroke-width="1.51"/><path d="M787,-172L1128,-164L1472,-160Z" fill="#bdbdbd" stroke="#bdbdbd" stroke-width="1.51"/><path d="M1569,1248L1376,1259L1804,1250Z" fill="#2a2a2a" stroke="#2a2a2a" stroke-width="1.51"/><path d="M1734,-137L1826,-130L1936,-148Z" fill="#868686" stroke="#868686" stroke-width="1.51"/><path d="M1472,-160L1734,-137L1936,-148Z" fill="#919191" stroke="#919191" stroke-width="1.51"/><path d="M2037,642L1936,668L2044,784Z" fill="#424242" stroke="#424242" stroke-width="1.51"/><path d="M2039,80L2046,177L2048,-51Z" fill="#707070" stroke="#707070" stroke-width="1.51"/><path d="M2048,285L1936,397L2050,433Z" fill="#5e5e5e" stroke="#5e5e5e" stroke-width="1.51"/><path d="M2037,642L2044,784L2051,527Z" fill="#444444" stroke="#444444" stroke-width="1.51"/><path d="M2044,784L2025,887L2055,976Z" fill="#313131" stroke="#313131" stroke-width="1.51"/><path d="M2048,-51L2046,177L2058,-129Z" fill="#737373" stroke="#737373" stroke-width="1.51"/><path d="M2046,177L2048,285L2058,-129Z" fill="#6d6d6d" stroke="#6d6d6d" stroke-width="1.51"/><path d="M2048,285L2050,433L2058,-129Z" fill="#686868" stroke="#686868" stroke-width="1.51"/><path d="M2055,976L1958,1013L2073,1116Z" fill="#222222" stroke="#222222" stroke-width="1.51"/><path d="M1958,1013L1923,1104L2073,1116Z" fill="#1f1f1f" stroke="#1f1f1f" stroke-width="1.51"/><path d="M1923,1104L1943,1248L2073,1116Z" fill="#191919" stroke="#191919" stroke-width="1.51"/><path d="M2044,784L2055,976L2073,1116Z" fill="#292929" stroke="#292929" stroke-width="1.51"/><path d="M2051,527L2044,784L2073,1116Z" fill="#363636" stroke="#363636" stroke-width="1.51"/><path d="M2058,-129L2050,433L2073,1116Z" fill="#525252" stroke="#525252" stroke-width="1.51"/><path d="M2050,433L2051,527L2073,1116Z" fill="#3f3f3f" stroke="#3f3f3f" stroke-width="1.51"/><path d="M1804,1250L1376,1259L2076,1251Z" fill="#1e1e1e" stroke="#1e1e1e" stroke-width="1.51"/><path d="M1943,1248L1804,1250L2076,1251Z" fill="#131313" stroke="#131313" stroke-width="1.51"/><path d="M2073,1116L1943,1248L2076,1251Z" fill="#111111" stroke="#111111" stroke-width="1.51"/><path d="M1936,668L1919,747L2044,784Z" fill="#414141" stroke="#414141" stroke-width="1.51"/><path d="M1922,54L2039,80L2048,-51Z" fill="#757575" stroke="#757575" stroke-width="1.51"/><path d="M1960,866L2025,887L2044,784Z" fill="#363636" stroke="#363636" stroke-width="1.51"/><path d="M1917,296L1936,397L2048,285Z" fill="#656565" stroke="#656565" stroke-width="1.51"/><path d="M2046,177L1927,216L2048,285Z" fill="#696969" stroke="#696969" stroke-width="1.51"/><path d="M1912,-36L1922,54L2048,-51Z" fill="#7a7a7a" stroke="#7a7a7a" stroke-width="1.51"/><path d="M1936,397L1933,546L2050,433Z" fill="#595959" stroke="#595959" stroke-width="1.51"/><path d="M2050,433L1933,546L2051,527Z" fill="#525252" stroke="#525252" stroke-width="1.51"/><path d="M1933,546L2037,642L2051,527Z" fill="#4c4c4c" stroke="#4c4c4c" stroke-width="1.51"/><path d="M2025,887L1958,1013L2055,976Z" fill="#2b2b2b" stroke="#2b2b2b" stroke-width="1.51"/><path d="M1936,-148L2048,-51L2058,-129Z" fill="#7a7a7a" stroke="#7a7a7a" stroke-width="1.51"/><path d="M1922,54L1927,216L2039,80Z" fill="#737373" stroke="#737373" stroke-width="1.51"/><path d="M2039,80L1927,216L2046,177Z" fill="#6e6e6e" stroke="#6e6e6e" stroke-width="1.51"/><path d="M1927,216L1917,296L2048,285Z" fill="#696969" stroke="#696969" stroke-width="1.51"/><path d="M1936,-148L1912,-36L2048,-51Z" fill="#7c7c7c" stroke="#7c7c7c" stroke-width="1.51"/><path d="M1960,866L1958,1013L2025,887Z" fill="#313131" stroke="#313131" stroke-width="1.51"/><path d="M1933,546L1936,668L2037,642Z" fill="#4b4b4b" stroke="#4b4b4b" stroke-width="1.51"/><path d="M1919,747L1960,866L2044,784Z" fill="#3b3b3b" stroke="#3b3b3b" stroke-width="1.51"/><path d="M559,1223L422,1238L662,1221Z" fill="#656565" stroke="#656565" stroke-width="1.51"/><path d="M1128,-164L1228,-144L1472,-160Z" fill="#b3b3b3" stroke="#b3b3b3" stroke-width="1.51"/><path d="M1472,-160L1599,-125L1734,-137Z" fill="#9c9c9c" stroke="#9c9c9c" stroke-width="1.51"/><path d="M1806,71L1797,178L1922,54Z" fill="#7b7b7b" stroke="#7b7b7b" stroke-width="1.51"/><path d="M1799,1113L1804,1250L1923,1104Z" fill="#1f1f1f" stroke="#1f1f1f" stroke-width="1.51"/><path d="M1922,54L1797,178L1927,216Z" fill="#767676" stroke="#767676" stroke-width="1.51"/><path d="M1933,546L1852,558L1936,668Z" fill="#515151" stroke="#515151" stroke-width="1.51"/><path d="M1852,558L1933,546L1936,397Z" fill="#595959" stroke="#595959" stroke-width="1.51"/><path d="M1796,408L1852,558L1936,397Z" fill="#606060" stroke="#606060" stroke-width="1.51"/><path d="M1923,1104L1804,1250L1943,1248Z" fill="#1a1a1a" stroke="#1a1a1a" stroke-width="1.51"/><path d="M1816,910L1792,981L1958,1013Z" fill="#333333" stroke="#333333" stroke-width="1.51"/><path d="M1919,747L1849,785L1960,866Z" fill="#3f3f3f" stroke="#3f3f3f" stroke-width="1.51"/><path d="M1849,785L1816,910L1960,866Z" fill="#3c3c3c" stroke="#3c3c3c" stroke-width="1.51"/><path d="M1816,910L1958,1013L1960,866Z" fill="#343434" stroke="#343434" stroke-width="1.51"/><path d="M1792,981L1923,1104L1958,1013Z" fill="#292929" stroke="#292929" stroke-width="1.51"/><path d="M1792,981L1799,1113L1923,1104Z" fill="#282828" stroke="#282828" stroke-width="1.51"/><path d="M1852,558L1819,660L1936,668Z" fill="#505050" stroke="#505050" stroke-width="1.51"/><path d="M1917,296L1841,301L1936,397Z" fill="#696969" stroke="#696969" stroke-width="1.51"/><path d="M1826,-130L1912,-36L1936,-148Z" fill="#828282" stroke="#828282" stroke-width="1.51"/><path d="M1841,301L1917,296L1927,216Z" fill="#6d6d6d" stroke="#6d6d6d" stroke-width="1.51"/><path d="M1819,660L1919,747L1936,668Z" fill="#494949" stroke="#494949" stroke-width="1.51"/><path d="M1841,301L1796,408L1936,397Z" fill="#686868" stroke="#686868" stroke-width="1.51"/><path d="M1912,-36L1806,71L1922,54Z" fill="#7d7d7d" stroke="#7d7d7d" stroke-width="1.51"/><path d="M1797,178L1841,301L1927,216Z" fill="#727272" stroke="#727272" stroke-width="1.51"/><path d="M1826,-130L1801,-58L1912,-36Z" fill="#838383" stroke="#838383" stroke-width="1.51"/><path d="M1801,-58L1806,71L1912,-36Z" fill="#818181" stroke="#818181" stroke-width="1.51"/><path d="M1819,660L1849,785L1919,747Z" fill="#484848" stroke="#484848" stroke-width="1.51"/><path d="M1688,452L1730,569L1796,408Z" fill="#686868" stroke="#686868" stroke-width="1.51"/><path d="M1799,1113L1727,1200L1804,1250Z" fill="#212121" stroke="#212121" stroke-width="1.51"/><path d="M1797,178L1710,213L1841,301Z" fill="#787878" stroke="#787878" stroke-width="1.51"/><path d="M1710,887L1816,910L1849,785Z" fill="#424242" stroke="#424242" stroke-width="1.51"/><path d="M1718,764L1710,887L1849,785Z" fill="#484848" stroke="#484848" stroke-width="1.51"/><path d="M1819,660L1718,764L1849,785Z" fill="#4c4c4c" stroke="#4c4c4c" stroke-width="1.51"/><path d="M1730,569L1819,660L1852,558Z" fill="#575757" stroke="#575757" stroke-width="1.51"/><path d="M1796,408L1730,569L1852,558Z" fill="#5f5f5f" stroke="#5f5f5f" stroke-width="1.51"/><path d="M1792,981L1724,1017L1799,1113Z" fill="#303030" stroke="#303030" stroke-width="1.51"/><path d="M1801,-58L1702,-25L1806,71Z" fill="#878787" stroke="#878787" stroke-width="1.51"/><path d="M1684,322L1796,408L1841,301Z" fill="#717171" stroke="#717171" stroke-width="1.51"/><path d="M1710,213L1684,322L1841,301Z" fill="#787878" stroke="#787878" stroke-width="1.51"/><path d="M1727,1200L1569,1248L1804,1250Z" fill="#232323" stroke="#232323" stroke-width="1.51"/><path d="M1706,69L1797,178L1806,71Z" fill="#818181" stroke="#818181" stroke-width="1.51"/><path d="M1702,-25L1706,69L1806,71Z" fill="#888888" stroke="#888888" stroke-width="1.51"/><path d="M1691,671L1718,764L1819,660Z" fill="#535353" stroke="#535353" stroke-width="1.51"/><path d="M1734,-137L1801,-58L1826,-130Z" fill="#898989" stroke="#898989" stroke-width="1.51"/><path d="M1710,887L1792,981L1816,910Z" fill="#3d3d3d" stroke="#3d3d3d" stroke-width="1.51"/><path d="M1730,569L1691,671L1819,660Z" fill="#585858" stroke="#585858" stroke-width="1.51"/><path d="M1724,1017L1704,1099L1799,1113Z" fill="#2e2e2e" stroke="#2e2e2e" stroke-width="1.51"/><path d="M1706,69L1710,213L1797,178Z" fill="#818181" stroke="#818181" stroke-width="1.51"/><path d="M1704,1099L1727,1200L1799,1113Z" fill="#282828" stroke="#282828" stroke-width="1.51"/><path d="M1734,-137L1702,-25L1801,-58Z" fill="#8b8b8b" stroke="#8b8b8b" stroke-width="1.51"/><path d="M1710,887L1724,1017L1792,981Z" fill="#3b3b3b" stroke="#3b3b3b" stroke-width="1.51"/><path d="M1684,322L1688,452L1796,408Z" fill="#717171" stroke="#717171" stroke-width="1.51"/><path d="M451,-161L580,-154L787,-172Z" fill="#dfdfdf" stroke="#dfdfdf" stroke-width="1.51"/><path d="M1228,-144L1353,-134L1472,-160Z" fill="#aeaeae" stroke="#aeaeae" stroke-width="1.51"/><path d="M1684,322L1619,406L1688,452Z" fill="#767676" stroke="#767676" stroke-width="1.51"/><path d="M1599,-125L1611,-41L1702,-25Z" fill="#959595" stroke="#959595" stroke-width="1.51"/><path d="M1706,69L1600,93L1710,213Z" fill="#888888" stroke="#888888" stroke-width="1.51"/><path d="M1600,93L1589,194L1710,213Z" fill="#8a8a8a" stroke="#8a8a8a" stroke-width="1.51"/><path d="M1594,786L1710,887L1718,764Z" fill="#505050" stroke="#505050" stroke-width="1.51"/><path d="M1710,887L1620,977L1724,1017Z" fill="#404040" stroke="#404040" stroke-width="1.51"/><path d="M1704,1099L1616,1110L1727,1200Z" fill="#2c2c2c" stroke="#2c2c2c" stroke-width="1.51"/><path d="M1688,452L1593,561L1730,569Z" fill="#696969" stroke="#696969" stroke-width="1.51"/><path d="M1600,643L1691,671L1730,569Z" fill="#5f5f5f" stroke="#5f5f5f" stroke-width="1.51"/><path d="M1593,561L1600,643L1730,569Z" fill="#656565" stroke="#656565" stroke-width="1.51"/><path d="M1599,-125L1702,-25L1734,-137Z" fill="#939393" stroke="#939393" stroke-width="1.51"/><path d="M1620,977L1616,1110L1704,1099Z" fill="#373737" stroke="#373737" stroke-width="1.51"/><path d="M1620,977L1704,1099L1724,1017Z" fill="#373737" stroke="#373737" stroke-width="1.51"/><path d="M1616,1110L1569,1248L1727,1200Z" fill="#2b2b2b" stroke="#2b2b2b" stroke-width="1.51"/><path d="M1691,671L1594,786L1718,764Z" fill="#565656" stroke="#565656" stroke-width="1.51"/><path d="M1702,-25L1611,-41L1706,69Z" fill="#8f8f8f" stroke="#8f8f8f" stroke-width="1.51"/><path d="M1570,280L1684,322L1710,213Z" fill="#818181" stroke="#818181" stroke-width="1.51"/><path d="M1589,194L1570,280L1710,213Z" fill="#878787" stroke="#878787" stroke-width="1.51"/><path d="M1594,786L1570,884L1710,887Z" fill="#505050" stroke="#505050" stroke-width="1.51"/><path d="M926,1207L662,1221L1115,1247Z" fill="#525252" stroke="#525252" stroke-width="1.51"/><path d="M1611,-41L1600,93L1706,69Z" fill="#909090" stroke="#909090" stroke-width="1.51"/><path d="M1570,884L1620,977L1710,887Z" fill="#494949" stroke="#494949" stroke-width="1.51"/><path d="M1600,643L1594,786L1691,671Z" fill="#5d5d5d" stroke="#5d5d5d" stroke-width="1.51"/><path d="M811,1203L662,1221L926,1207Z" fill="#5a5a5a" stroke="#5a5a5a" stroke-width="1.51"/><path d="M1619,406L1593,561L1688,452Z" fill="#717171" stroke="#717171" stroke-width="1.51"/><path d="M1570,280L1619,406L1684,322Z" fill="#7f7f7f" stroke="#7f7f7f" stroke-width="1.51"/><path d="M1460,1225L1376,1259L1569,1248Z" fill="#323232" stroke="#323232" stroke-width="1.51"/><path d="M1477,451L1476,540L1593,561Z" fill="#777777" stroke="#777777" stroke-width="1.51"/><path d="M1489,752L1594,786L1600,643Z" fill="#606060" stroke="#606060" stroke-width="1.51"/><path d="M1460,80L1600,93L1611,-41Z" fill="#979797" stroke="#979797" stroke-width="1.51"/><path d="M1451,-35L1460,80L1611,-41Z" fill="#9e9e9e" stroke="#9e9e9e" stroke-width="1.51"/><path d="M1460,1225L1569,1248L1616,1110Z" fill="#323232" stroke="#323232" stroke-width="1.51"/><path d="M1450,1100L1460,1225L1616,1110Z" fill="#383838" stroke="#383838" stroke-width="1.51"/><path d="M1570,280L1465,320L1619,406Z" fill="#858585" stroke="#858585" stroke-width="1.51"/><path d="M1465,320L1477,451L1619,406Z" fill="#838383" stroke="#838383" stroke-width="1.51"/><path d="M1477,451L1593,561L1619,406Z" fill="#777777" stroke="#777777" stroke-width="1.51"/><path d="M1504,1010L1616,1110L1620,977Z" fill="#404040" stroke="#404040" stroke-width="1.51"/><path d="M1570,884L1504,1010L1620,977Z" fill="#4a4a4a" stroke="#4a4a4a" stroke-width="1.51"/><path d="M1599,-125L1451,-35L1611,-41Z" fill="#9d9d9d" stroke="#9d9d9d" stroke-width="1.51"/><path d="M1504,1010L1450,1100L1616,1110Z" fill="#3e3e3e" stroke="#3e3e3e" stroke-width="1.51"/><path d="M1498,196L1589,194L1600,93Z" fill="#909090" stroke="#909090" stroke-width="1.51"/><path d="M1502,888L1504,1010L1570,884Z" fill="#515151" stroke="#515151" stroke-width="1.51"/><path d="M1498,196L1570,280L1589,194Z" fill="#8d8d8d" stroke="#8d8d8d" stroke-width="1.51"/><path d="M1502,888L1570,884L1594,786Z" fill="#565656" stroke="#565656" stroke-width="1.51"/><path d="M1489,752L1502,888L1594,786Z" fill="#5b5b5b" stroke="#5b5b5b" stroke-width="1.51"/><path d="M1472,-160L1451,-35L1599,-125Z" fill="#a2a2a2" stroke="#a2a2a2" stroke-width="1.51"/><path d="M1448,684L1489,752L1600,643Z" fill="#676767" stroke="#676767" stroke-width="1.51"/><path d="M1593,561L1476,540L1600,643Z" fill="#6d6d6d" stroke="#6d6d6d" stroke-width="1.51"/><path d="M1476,540L1448,684L1600,643Z" fill="#6d6d6d" stroke="#6d6d6d" stroke-width="1.51"/><path d="M1460,80L1498,196L1600,93Z" fill="#969696" stroke="#969696" stroke-width="1.51"/><path d="M1498,196L1465,320L1570,280Z" fill="#8d8d8d" stroke="#8d8d8d" stroke-width="1.51"/><path d="M787,-172L1006,-142L1128,-164Z" fill="#c6c6c6" stroke="#c6c6c6" stroke-width="1.51"/><path d="M1450,1100L1386,1140L1460,1225Z" fill="#3b3b3b" stroke="#3b3b3b" stroke-width="1.51"/><path d="M1359,645L1448,684L1476,540Z" fill="#727272" stroke="#727272" stroke-width="1.51"/><path d="M1465,320L1384,449L1477,451Z" fill="#868686" stroke="#868686" stroke-width="1.51"/><path d="M1460,80L1362,166L1498,196Z" fill="#9a9a9a" stroke="#9a9a9a" stroke-width="1.51"/><path d="M1389,288L1465,320L1498,196Z" fill="#919191" stroke="#919191" stroke-width="1.51"/><path d="M1338,855L1386,1028L1502,888Z" fill="#575757" stroke="#575757" stroke-width="1.51"/><path d="M1489,752L1364,789L1502,888Z" fill="#5f5f5f" stroke="#5f5f5f" stroke-width="1.51"/><path d="M1364,789L1338,855L1502,888Z" fill="#5f5f5f" stroke="#5f5f5f" stroke-width="1.51"/><path d="M1502,888L1386,1028L1504,1010Z" fill="#4e4e4e" stroke="#4e4e4e" stroke-width="1.51"/><path d="M1386,1028L1450,1100L1504,1010Z" fill="#464646" stroke="#464646" stroke-width="1.51"/><path d="M1369,-60L1451,-35L1472,-160Z" fill="#a6a6a6" stroke="#a6a6a6" stroke-width="1.51"/><path d="M1362,166L1389,288L1498,196Z" fill="#969696" stroke="#969696" stroke-width="1.51"/><path d="M1353,-134L1369,-60L1472,-160Z" fill="#a9a9a9" stroke="#a9a9a9" stroke-width="1.51"/><path d="M1376,528L1359,645L1476,540Z" fill="#787878" stroke="#787878" stroke-width="1.51"/><path d="M1376,528L1476,540L1477,451Z" fill="#7c7c7c" stroke="#7c7c7c" stroke-width="1.51"/><path d="M1384,449L1376,528L1477,451Z" fill="#818181" stroke="#818181" stroke-width="1.51"/><path d="M1448,684L1364,789L1489,752Z" fill="#666666" stroke="#666666" stroke-width="1.51"/><path d="M1451,-35L1339,71L1460,80Z" fill="#a1a1a1" stroke="#a1a1a1" stroke-width="1.51"/><path d="M1389,288L1384,449L1465,320Z" fill="#8d8d8d" stroke="#8d8d8d" stroke-width="1.51"/><path d="M1369,-60L1339,71L1451,-35Z" fill="#a6a6a6" stroke="#a6a6a6" stroke-width="1.51"/><path d="M1339,71L1362,166L1460,80Z" fill="#9f9f9f" stroke="#9f9f9f" stroke-width="1.51"/><path d="M1386,1140L1376,1259L1460,1225Z" fill="#383838" stroke="#383838" stroke-width="1.51"/><path d="M1359,645L1364,789L1448,684Z" fill="#6c6c6c" stroke="#6c6c6c" stroke-width="1.51"/><path d="M1386,1028L1386,1140L1450,1100Z" fill="#434343" stroke="#434343" stroke-width="1.51"/><path d="M1248,642L1226,768L1359,645Z" fill="#757575" stroke="#757575" stroke-width="1.51"/><path d="M1359,645L1226,768L1364,789Z" fill="#6e6e6e" stroke="#6e6e6e" stroke-width="1.51"/><path d="M1234,-23L1339,71L1369,-60Z" fill="#aaaaaa" stroke="#aaaaaa" stroke-width="1.51"/><path d="M1240,1141L1217,1247L1376,1259Z" fill="#3e3e3e" stroke="#3e3e3e" stroke-width="1.51"/><path d="M1235,550L1359,645L1376,528Z" fill="#7c7c7c" stroke="#7c7c7c" stroke-width="1.51"/><path d="M1238,430L1376,528L1384,449Z" fill="#868686" stroke="#868686" stroke-width="1.51"/><path d="M1258,330L1238,430L1384,449Z" fill="#8f8f8f" stroke="#8f8f8f" stroke-width="1.51"/><path d="M1240,1141L1376,1259L1386,1140Z" fill="#3e3e3e" stroke="#3e3e3e" stroke-width="1.51"/><path d="M1338,855L1231,903L1386,1028Z" fill="#5c5c5c" stroke="#5c5c5c" stroke-width="1.51"/><path d="M1231,903L1230,1007L1386,1028Z" fill="#585858" stroke="#585858" stroke-width="1.51"/><path d="M1240,1141L1386,1140L1386,1028Z" fill="#454545" stroke="#454545" stroke-width="1.51"/><path d="M1230,1007L1240,1141L1386,1028Z" fill="#4e4e4e" stroke="#4e4e4e" stroke-width="1.51"/><path d="M1362,166L1254,166L1389,288Z" fill="#9c9c9c" stroke="#9c9c9c" stroke-width="1.51"/><path d="M1254,166L1258,330L1389,288Z" fill="#9b9b9b" stroke="#9b9b9b" stroke-width="1.51"/><path d="M1258,330L1384,449L1389,288Z" fill="#919191" stroke="#919191" stroke-width="1.51"/><path d="M1235,550L1248,642L1359,645Z" fill="#7b7b7b" stroke="#7b7b7b" stroke-width="1.51"/><path d="M1238,430L1235,550L1376,528Z" fill="#868686" stroke="#868686" stroke-width="1.51"/><path d="M1339,71L1254,166L1362,166Z" fill="#a2a2a2" stroke="#a2a2a2" stroke-width="1.51"/><path d="M1353,-134L1234,-23L1369,-60Z" fill="#adadad" stroke="#adadad" stroke-width="1.51"/><path d="M1228,-144L1234,-23L1353,-134Z" fill="#b1b1b1" stroke="#b1b1b1" stroke-width="1.51"/><path d="M1226,768L1338,855L1364,789Z" fill="#686868" stroke="#686868" stroke-width="1.51"/><path d="M1234,-23L1244,77L1339,71Z" fill="#aaaaaa" stroke="#aaaaaa" stroke-width="1.51"/><path d="M1244,77L1254,166L1339,71Z" fill="#a6a6a6" stroke="#a6a6a6" stroke-width="1.51"/><path d="M1226,768L1231,903L1338,855Z" fill="#676767" stroke="#676767" stroke-width="1.51"/><path d="M787,-172L875,-141L1006,-142Z" fill="#cccccc" stroke="#cccccc" stroke-width="1.51"/><path d="M1020,1212L926,1207L1115,1247Z" fill="#4c4c4c" stroke="#4c4c4c" stroke-width="1.51"/><path d="M1120,642L1105,745L1226,768Z" fill="#7a7a7a" stroke="#7a7a7a" stroke-width="1.51"/><path d="M1162,906L1230,1007L1231,903Z" fill="#626262" stroke="#626262" stroke-width="1.51"/><path d="M1226,768L1162,906L1231,903Z" fill="#696969" stroke="#696969" stroke-width="1.51"/><path d="M1102,453L1105,535L1235,550Z" fill="#8d8d8d" stroke="#8d8d8d" stroke-width="1.51"/><path d="M1102,453L1235,550L1238,430Z" fill="#8e8e8e" stroke="#8e8e8e" stroke-width="1.51"/><path d="M1230,1007L1147,1129L1240,1141Z" fill="#4e4e4e" stroke="#4e4e4e" stroke-width="1.51"/><path d="M1234,-23L1116,64L1244,77Z" fill="#afafaf" stroke="#afafaf" stroke-width="1.51"/><path d="M1235,550L1120,642L1248,642Z" fill="#808080" stroke="#808080" stroke-width="1.51"/><path d="M1120,642L1226,768L1248,642Z" fill="#7a7a7a" stroke="#7a7a7a" stroke-width="1.51"/><path d="M1244,77L1116,64L1254,166Z" fill="#ababab" stroke="#ababab" stroke-width="1.51"/><path d="M1147,324L1238,430L1258,330Z" fill="#989898" stroke="#989898" stroke-width="1.51"/><path d="M1254,166L1130,223L1258,330Z" fill="#a1a1a1" stroke="#a1a1a1" stroke-width="1.51"/><path d="M1130,223L1147,324L1258,330Z" fill="#a0a0a0" stroke="#a0a0a0" stroke-width="1.51"/><path d="M1228,-144L1122,-20L1234,-23Z" fill="#b4b4b4" stroke="#b4b4b4" stroke-width="1.51"/><path d="M1147,1129L1217,1247L1240,1141Z" fill="#474747" stroke="#474747" stroke-width="1.51"/><path d="M1116,64L1130,223L1254,166Z" fill="#ababab" stroke="#ababab" stroke-width="1.51"/><path d="M1162,906L1132,976L1230,1007Z" fill="#606060" stroke="#606060" stroke-width="1.51"/><path d="M1122,-20L1116,64L1234,-23Z" fill="#b4b4b4" stroke="#b4b4b4" stroke-width="1.51"/><path d="M1128,-164L1122,-20L1228,-144Z" fill="#b9b9b9" stroke="#b9b9b9" stroke-width="1.51"/><path d="M1105,745L1162,906L1226,768Z" fill="#717171" stroke="#717171" stroke-width="1.51"/><path d="M1132,976L1147,1129L1230,1007Z" fill="#575757" stroke="#575757" stroke-width="1.51"/><path d="M1105,535L1120,642L1235,550Z" fill="#868686" stroke="#868686" stroke-width="1.51"/><path d="M1147,324L1102,453L1238,430Z" fill="#989898" stroke="#989898" stroke-width="1.51"/><path d="M1147,1129L1115,1247L1217,1247Z" fill="#464646" stroke="#464646" stroke-width="1.51"/><path d="M97,1235L-33,1245L307,1253Z" fill="#747474" stroke="#747474" stroke-width="1.51"/><path d="M1024,774L1011,886L1105,745Z" fill="#787878" stroke="#787878" stroke-width="1.51"/><path d="M1006,-142L1122,-20L1128,-164Z" fill="#bdbdbd" stroke="#bdbdbd" stroke-width="1.51"/><path d="M1116,64L996,182L1130,223Z" fill="#b0b0b0" stroke="#b0b0b0" stroke-width="1.51"/><path d="M1020,1212L1115,1247L1147,1129Z" fill="#4a4a4a" stroke="#4a4a4a" stroke-width="1.51"/><path d="M1132,976L1040,1110L1147,1129Z" fill="#565656" stroke="#565656" stroke-width="1.51"/><path d="M1011,886L1132,976L1162,906Z" fill="#6a6a6a" stroke="#6a6a6a" stroke-width="1.51"/><path d="M1105,745L1011,886L1162,906Z" fill="#727272" stroke="#727272" stroke-width="1.51"/><path d="M1037,683L1105,745L1120,642Z" fill="#808080" stroke="#808080" stroke-width="1.51"/><path d="M1006,-142L988,-43L1122,-20Z" fill="#bfbfbf" stroke="#bfbfbf" stroke-width="1.51"/><path d="M996,1016L1040,1110L1132,976Z" fill="#5d5d5d" stroke="#5d5d5d" stroke-width="1.51"/><path d="M989,411L1102,453L1147,324Z" fill="#9d9d9d" stroke="#9d9d9d" stroke-width="1.51"/><path d="M1007,303L989,411L1147,324Z" fill="#a4a4a4" stroke="#a4a4a4" stroke-width="1.51"/><path d="M1130,223L1007,303L1147,324Z" fill="#a5a5a5" stroke="#a5a5a5" stroke-width="1.51"/><path d="M1040,1110L1020,1212L1147,1129Z" fill="#505050" stroke="#505050" stroke-width="1.51"/><path d="M994,59L996,182L1116,64Z" fill="#b6b6b6" stroke="#b6b6b6" stroke-width="1.51"/><path d="M1105,535L1026,548L1120,642Z" fill="#8b8b8b" stroke="#8b8b8b" stroke-width="1.51"/><path d="M994,59L1116,64L1122,-20Z" fill="#b7b7b7" stroke="#b7b7b7" stroke-width="1.51"/><path d="M1011,886L996,1016L1132,976Z" fill="#686868" stroke="#686868" stroke-width="1.51"/><path d="M996,182L1007,303L1130,223Z" fill="#acacac" stroke="#acacac" stroke-width="1.51"/><path d="M1026,548L1037,683L1120,642Z" fill="#888888" stroke="#888888" stroke-width="1.51"/><path d="M988,-43L994,59L1122,-20Z" fill="#bcbcbc" stroke="#bcbcbc" stroke-width="1.51"/><path d="M1102,453L1026,548L1105,535Z" fill="#919191" stroke="#919191" stroke-width="1.51"/><path d="M1037,683L1024,774L1105,745Z" fill="#7e7e7e" stroke="#7e7e7e" stroke-width="1.51"/><path d="M989,411L1026,548L1102,453Z" fill="#989898" stroke="#989898" stroke-width="1.51"/><path d="M927,874L1011,886L1024,774Z" fill="#787878" stroke="#787878" stroke-width="1.51"/><path d="M929,773L927,874L1024,774Z" fill="#7d7d7d" stroke="#7d7d7d" stroke-width="1.51"/><path d="M989,411L910,510L1026,548Z" fill="#9a9a9a" stroke="#9a9a9a" stroke-width="1.51"/><path d="M929,773L1024,774L1037,683Z" fill="#808080" stroke="#808080" stroke-width="1.51"/><path d="M1026,548L905,631L1037,683Z" fill="#8c8c8c" stroke="#8c8c8c" stroke-width="1.51"/><path d="M996,1016L912,1098L1040,1110Z" fill="#5c5c5c" stroke="#5c5c5c" stroke-width="1.51"/><path d="M926,1207L1020,1212L1040,1110Z" fill="#515151" stroke="#515151" stroke-width="1.51"/><path d="M912,1098L926,1207L1040,1110Z" fill="#575757" stroke="#575757" stroke-width="1.51"/><path d="M927,874L996,1016L1011,886Z" fill="#717171" stroke="#717171" stroke-width="1.51"/><path d="M905,631L929,773L1037,683Z" fill="#878787" stroke="#878787" stroke-width="1.51"/><path d="M930,177L930,305L996,182Z" fill="#b4b4b4" stroke="#b4b4b4" stroke-width="1.51"/><path d="M994,59L930,177L996,182Z" fill="#b7b7b7" stroke="#b7b7b7" stroke-width="1.51"/><path d="M927,874L877,989L996,1016Z" fill="#6f6f6f" stroke="#6f6f6f" stroke-width="1.51"/><path d="M996,182L930,305L1007,303Z" fill="#afafaf" stroke="#afafaf" stroke-width="1.51"/><path d="M930,305L989,411L1007,303Z" fill="#a9a9a9" stroke="#a9a9a9" stroke-width="1.51"/><path d="M910,510L905,631L1026,548Z" fill="#959595" stroke="#959595" stroke-width="1.51"/><path d="M923,-50L988,-43L1006,-142Z" fill="#c3c3c3" stroke="#c3c3c3" stroke-width="1.51"/><path d="M923,-50L902,53L988,-43Z" fill="#c3c3c3" stroke="#c3c3c3" stroke-width="1.51"/><path d="M988,-43L902,53L994,59Z" fill="#c0c0c0" stroke="#c0c0c0" stroke-width="1.51"/><path d="M902,53L930,177L994,59Z" fill="#bcbcbc" stroke="#bcbcbc" stroke-width="1.51"/><path d="M896,415L910,510L989,411Z" fill="#a2a2a2" stroke="#a2a2a2" stroke-width="1.51"/><path d="M875,-141L923,-50L1006,-142Z" fill="#c7c7c7" stroke="#c7c7c7" stroke-width="1.51"/><path d="M930,305L896,415L989,411Z" fill="#a8a8a8" stroke="#a8a8a8" stroke-width="1.51"/><path d="M877,989L912,1098L996,1016Z" fill="#656565" stroke="#656565" stroke-width="1.51"/><path d="M800,639L804,767L905,631Z" fill="#919191" stroke="#919191" stroke-width="1.51"/><path d="M800,639L905,631L910,510Z" fill="#979797" stroke="#979797" stroke-width="1.51"/><path d="M777,518L800,639L910,510Z" fill="#9d9d9d" stroke="#9d9d9d" stroke-width="1.51"/><path d="M808,1094L811,1203L912,1098Z" fill="#5f5f5f" stroke="#5f5f5f" stroke-width="1.51"/><path d="M817,-7L902,53L923,-50Z" fill="#c7c7c7" stroke="#c7c7c7" stroke-width="1.51"/><path d="M912,1098L811,1203L926,1207Z" fill="#585858" stroke="#585858" stroke-width="1.51"/><path d="M760,909L877,989L927,874Z" fill="#787878" stroke="#787878" stroke-width="1.51"/><path d="M804,767L927,874L929,773Z" fill="#828282" stroke="#828282" stroke-width="1.51"/><path d="M905,631L804,767L929,773Z" fill="#8a8a8a" stroke="#8a8a8a" stroke-width="1.51"/><path d="M793,327L896,415L930,305Z" fill="#b0b0b0" stroke="#b0b0b0" stroke-width="1.51"/><path d="M766,199L793,327L930,305Z" fill="#b7b7b7" stroke="#b7b7b7" stroke-width="1.51"/><path d="M902,53L802,85L930,177Z" fill="#c0c0c0" stroke="#c0c0c0" stroke-width="1.51"/><path d="M802,85L766,199L930,177Z" fill="#c1c1c1" stroke="#c1c1c1" stroke-width="1.51"/><path d="M766,199L930,305L930,177Z" fill="#b8b8b8" stroke="#b8b8b8" stroke-width="1.51"/><path d="M804,767L760,909L927,874Z" fill="#818181" stroke="#818181" stroke-width="1.51"/><path d="M877,989L808,1094L912,1098Z" fill="#656565" stroke="#656565" stroke-width="1.51"/><path d="M875,-141L817,-7L923,-50Z" fill="#cacaca" stroke="#cacaca" stroke-width="1.51"/><path d="M800,1020L808,1094L877,989Z" fill="#6b6b6b" stroke="#6b6b6b" stroke-width="1.51"/><path d="M783,403L777,518L896,415Z" fill="#a9a9a9" stroke="#a9a9a9" stroke-width="1.51"/><path d="M896,415L777,518L910,510Z" fill="#a2a2a2" stroke="#a2a2a2" stroke-width="1.51"/><path d="M793,327L783,403L896,415Z" fill="#afafaf" stroke="#afafaf" stroke-width="1.51"/><path d="M817,-7L802,85L902,53Z" fill="#c6c6c6" stroke="#c6c6c6" stroke-width="1.51"/><path d="M580,-154L661,-135L787,-172Z" fill="#dcdcdc" stroke="#dcdcdc" stroke-width="1.51"/><path d="M787,-172L817,-7L875,-141Z" fill="#cfcfcf" stroke="#cfcfcf" stroke-width="1.51"/><path d="M760,909L800,1020L877,989Z" fill="#747474" stroke="#747474" stroke-width="1.51"/><path d="M661,-135L695,-29L787,-172Z" fill="#d7d7d7" stroke="#d7d7d7" stroke-width="1.51"/><path d="M663,787L760,909L804,767Z" fill="#898989" stroke="#898989" stroke-width="1.51"/><path d="M800,639L654,667L804,767Z" fill="#969696" stroke="#969696" stroke-width="1.51"/><path d="M808,1094L662,1137L811,1203Z" fill="#626262" stroke="#626262" stroke-width="1.51"/><path d="M787,-172L695,-29L817,-7Z" fill="#d1d1d1" stroke="#d1d1d1" stroke-width="1.51"/><path d="M696,72L802,85L817,-7Z" fill="#cbcbcb" stroke="#cbcbcb" stroke-width="1.51"/><path d="M695,-29L696,72L817,-7Z" fill="#d0d0d0" stroke="#d0d0d0" stroke-width="1.51"/><path d="M692,419L777,518L783,403Z" fill="#adadad" stroke="#adadad" stroke-width="1.51"/><path d="M766,199L668,330L793,327Z" fill="#bdbdbd" stroke="#bdbdbd" stroke-width="1.51"/><path d="M777,518L654,667L800,639Z" fill="#9e9e9e" stroke="#9e9e9e" stroke-width="1.51"/><path d="M760,909L683,999L800,1020Z" fill="#787878" stroke="#787878" stroke-width="1.51"/><path d="M696,72L766,199L802,85Z" fill="#c8c8c8" stroke="#c8c8c8" stroke-width="1.51"/><path d="M654,667L663,787L804,767Z" fill="#949494" stroke="#949494" stroke-width="1.51"/><path d="M800,1020L683,999L808,1094Z" fill="#6f6f6f" stroke="#6f6f6f" stroke-width="1.51"/><path d="M662,1137L662,1221L811,1203Z" fill="#616161" stroke="#616161" stroke-width="1.51"/><path d="M683,999L662,1137L808,1094Z" fill="#6c6c6c" stroke="#6c6c6c" stroke-width="1.51"/><path d="M663,787L654,870L760,909Z" fill="#8a8a8a" stroke="#8a8a8a" stroke-width="1.51"/><path d="M646,510L654,667L777,518Z" fill="#a5a5a5" stroke="#a5a5a5" stroke-width="1.51"/><path d="M668,330L783,403L793,327Z" fill="#b8b8b8" stroke="#b8b8b8" stroke-width="1.51"/><path d="M672,197L668,330L766,199Z" fill="#c3c3c3" stroke="#c3c3c3" stroke-width="1.51"/><path d="M696,72L672,197L766,199Z" fill="#c9c9c9" stroke="#c9c9c9" stroke-width="1.51"/><path d="M668,330L692,419L783,403Z" fill="#b6b6b6" stroke="#b6b6b6" stroke-width="1.51"/><path d="M692,419L646,510L777,518Z" fill="#adadad" stroke="#adadad" stroke-width="1.51"/><path d="M654,870L683,999L760,909Z" fill="#828282" stroke="#828282" stroke-width="1.51"/><path d="M646,510L565,511L654,667Z" fill="#aaaaaa" stroke="#aaaaaa" stroke-width="1.51"/><path d="M654,667L586,679L663,787Z" fill="#9b9b9b" stroke="#9b9b9b" stroke-width="1.51"/><path d="M567,223L668,330L672,197Z" fill="#c6c6c6" stroke="#c6c6c6" stroke-width="1.51"/><path d="M654,870L536,1002L683,999Z" fill="#828282" stroke="#828282" stroke-width="1.51"/><path d="M570,1108L662,1137L683,999Z" fill="#707070" stroke="#707070" stroke-width="1.51"/><path d="M668,330L584,435L692,419Z" fill="#b9b9b9" stroke="#b9b9b9" stroke-width="1.51"/><path d="M584,435L646,510L692,419Z" fill="#b4b4b4" stroke="#b4b4b4" stroke-width="1.51"/><path d="M661,-135L556,-65L695,-29Z" fill="#dadada" stroke="#dadada" stroke-width="1.51"/><path d="M531,98L672,197L696,72Z" fill="#cfcfcf" stroke="#cfcfcf" stroke-width="1.51"/><path d="M695,-29L556,-65L696,72Z" fill="#d6d6d6" stroke="#d6d6d6" stroke-width="1.51"/><path d="M556,-65L531,98L696,72Z" fill="#d7d7d7" stroke="#d7d7d7" stroke-width="1.51"/><path d="M565,511L586,679L654,667Z" fill="#a5a5a5" stroke="#a5a5a5" stroke-width="1.51"/><path d="M544,878L536,1002L654,870Z" fill="#898989" stroke="#898989" stroke-width="1.51"/><path d="M536,1002L570,1108L683,999Z" fill="#787878" stroke="#787878" stroke-width="1.51"/><path d="M531,98L567,223L672,197Z" fill="#cecece" stroke="#cecece" stroke-width="1.51"/><path d="M580,-154L556,-65L661,-135Z" fill="#dedede" stroke="#dedede" stroke-width="1.51"/><path d="M662,1137L559,1223L662,1221Z" fill="#656565" stroke="#656565" stroke-width="1.51"/><path d="M586,679L550,783L663,787Z" fill="#989898" stroke="#989898" stroke-width="1.51"/><path d="M550,783L654,870L663,787Z" fill="#919191" stroke="#919191" stroke-width="1.51"/><path d="M542,339L584,435L668,330Z" fill="#bfbfbf" stroke="#bfbfbf" stroke-width="1.51"/><path d="M567,223L542,339L668,330Z" fill="#c5c5c5" stroke="#c5c5c5" stroke-width="1.51"/><path d="M570,1108L559,1223L662,1137Z" fill="#6a6a6a" stroke="#6a6a6a" stroke-width="1.51"/><path d="M550,783L544,878L654,870Z" fill="#909090" stroke="#909090" stroke-width="1.51"/><path d="M584,435L565,511L646,510Z" fill="#b2b2b2" stroke="#b2b2b2" stroke-width="1.51"/><path d="M-152,-170L-12,-132L231,-150Z" fill="#f7f7f7" stroke="#f7f7f7" stroke-width="1.51"/><path d="M231,-150L355,-132L451,-161Z" fill="#ebebeb" stroke="#ebebeb" stroke-width="1.51"/><path d="M470,-13L531,98L556,-65Z" fill="#dcdcdc" stroke="#dcdcdc" stroke-width="1.51"/><path d="M531,98L453,186L567,223Z" fill="#d2d2d2" stroke="#d2d2d2" stroke-width="1.51"/><path d="M414,1144L559,1223L570,1108Z" fill="#6d6d6d" stroke="#6d6d6d" stroke-width="1.51"/><path d="M451,-161L556,-65L580,-154Z" fill="#e1e1e1" stroke="#e1e1e1" stroke-width="1.51"/><path d="M418,445L565,511L584,435Z" fill="#b9b9b9" stroke="#b9b9b9" stroke-width="1.51"/><path d="M542,339L418,445L584,435Z" fill="#bfbfbf" stroke="#bfbfbf" stroke-width="1.51"/><path d="M421,674L550,783L586,679Z" fill="#a0a0a0" stroke="#a0a0a0" stroke-width="1.51"/><path d="M461,550L421,674L586,679Z" fill="#a9a9a9" stroke="#a9a9a9" stroke-width="1.51"/><path d="M565,511L461,550L586,679Z" fill="#acacac" stroke="#acacac" stroke-width="1.51"/><path d="M458,912L536,1002L544,878Z" fill="#8a8a8a" stroke="#8a8a8a" stroke-width="1.51"/><path d="M436,306L542,339L567,223Z" fill="#c9c9c9" stroke="#c9c9c9" stroke-width="1.51"/><path d="M421,674L424,771L550,783Z" fill="#9f9f9f" stroke="#9f9f9f" stroke-width="1.51"/><path d="M418,445L461,550L565,511Z" fill="#b7b7b7" stroke="#b7b7b7" stroke-width="1.51"/><path d="M453,186L436,306L567,223Z" fill="#cecece" stroke="#cecece" stroke-width="1.51"/><path d="M536,1002L419,1017L570,1108Z" fill="#7b7b7b" stroke="#7b7b7b" stroke-width="1.51"/><path d="M419,1017L414,1144L570,1108Z" fill="#767676" stroke="#767676" stroke-width="1.51"/><path d="M414,1144L422,1238L559,1223Z" fill="#6b6b6b" stroke="#6b6b6b" stroke-width="1.51"/><path d="M424,771L544,878L550,783Z" fill="#979797" stroke="#979797" stroke-width="1.51"/><path d="M451,-161L470,-13L556,-65Z" fill="#e1e1e1" stroke="#e1e1e1" stroke-width="1.51"/><path d="M424,771L458,912L544,878Z" fill="#949494" stroke="#949494" stroke-width="1.51"/><path d="M436,306L418,445L542,339Z" fill="#c6c6c6" stroke="#c6c6c6" stroke-width="1.51"/><path d="M-12,-132L92,-124L231,-150Z" fill="#f4f4f4" stroke="#f4f4f4" stroke-width="1.51"/><path d="M470,-13L414,107L531,98Z" fill="#dbdbdb" stroke="#dbdbdb" stroke-width="1.51"/><path d="M414,107L453,186L531,98Z" fill="#d7d7d7" stroke="#d7d7d7" stroke-width="1.51"/><path d="M458,912L419,1017L536,1002Z" fill="#868686" stroke="#868686" stroke-width="1.51"/><path d="M350,1089L414,1144L419,1017Z" fill="#7b7b7b" stroke="#7b7b7b" stroke-width="1.51"/><path d="M351,336L418,445L436,306Z" fill="#c9c9c9" stroke="#c9c9c9" stroke-width="1.51"/><path d="M355,201L436,306L453,186Z" fill="#d2d2d2" stroke="#d2d2d2" stroke-width="1.51"/><path d="M424,771L327,914L458,912Z" fill="#969696" stroke="#969696" stroke-width="1.51"/><path d="M332,658L421,674L461,550Z" fill="#adadad" stroke="#adadad" stroke-width="1.51"/><path d="M323,-20L414,107L470,-13Z" fill="#e0e0e0" stroke="#e0e0e0" stroke-width="1.51"/><path d="M451,-161L355,-132L470,-13Z" fill="#e6e6e6" stroke="#e6e6e6" stroke-width="1.51"/><path d="M355,-132L323,-20L470,-13Z" fill="#e6e6e6" stroke="#e6e6e6" stroke-width="1.51"/><path d="M327,914L419,1017L458,912Z" fill="#8d8d8d" stroke="#8d8d8d" stroke-width="1.51"/><path d="M418,445L303,519L461,550Z" fill="#bababa" stroke="#bababa" stroke-width="1.51"/><path d="M303,519L332,658L461,550Z" fill="#b4b4b4" stroke="#b4b4b4" stroke-width="1.51"/><path d="M414,107L355,201L453,186Z" fill="#d8d8d8" stroke="#d8d8d8" stroke-width="1.51"/><path d="M323,-20L324,109L414,107Z" fill="#e0e0e0" stroke="#e0e0e0" stroke-width="1.51"/><path d="M334,441L303,519L418,445Z" fill="#c0c0c0" stroke="#c0c0c0" stroke-width="1.51"/><path d="M351,336L334,441L418,445Z" fill="#c6c6c6" stroke="#c6c6c6" stroke-width="1.51"/><path d="M327,914L342,1024L419,1017Z" fill="#898989" stroke="#898989" stroke-width="1.51"/><path d="M421,674L339,744L424,771Z" fill="#a4a4a4" stroke="#a4a4a4" stroke-width="1.51"/><path d="M339,744L327,914L424,771Z" fill="#9d9d9d" stroke="#9d9d9d" stroke-width="1.51"/><path d="M355,201L351,336L436,306Z" fill="#d0d0d0" stroke="#d0d0d0" stroke-width="1.51"/><path d="M324,109L355,201L414,107Z" fill="#dbdbdb" stroke="#dbdbdb" stroke-width="1.51"/><path d="M342,1024L350,1089L419,1017Z" fill="#818181" stroke="#818181" stroke-width="1.51"/><path d="M332,658L339,744L421,674Z" fill="#a9a9a9" stroke="#a9a9a9" stroke-width="1.51"/><path d="M414,1144L307,1253L422,1238Z" fill="#6e6e6e" stroke="#6e6e6e" stroke-width="1.51"/><path d="M350,1089L307,1253L414,1144Z" fill="#737373" stroke="#737373" stroke-width="1.51"/><path d="M323,-20L213,89L324,109Z" fill="#e3e3e3" stroke="#e3e3e3" stroke-width="1.51"/><path d="M303,519L236,525L332,658Z" fill="#b8b8b8" stroke="#b8b8b8" stroke-width="1.51"/><path d="M236,525L202,643L332,658Z" fill="#b5b5b5" stroke="#b5b5b5" stroke-width="1.51"/><path d="M228,905L327,914L339,744Z" fill="#9b9b9b" stroke="#9b9b9b" stroke-width="1.51"/><path d="M204,742L228,905L339,744Z" fill="#a2a2a2" stroke="#a2a2a2" stroke-width="1.51"/><path d="M327,914L237,1021L342,1024Z" fill="#8c8c8c" stroke="#8c8c8c" stroke-width="1.51"/><path d="M237,1200L307,1253L350,1089Z" fill="#747474" stroke="#747474" stroke-width="1.51"/><path d="M223,1101L237,1200L350,1089Z" fill="#7a7a7a" stroke="#7a7a7a" stroke-width="1.51"/><path d="M342,1024L237,1021L350,1089Z" fill="#838383" stroke="#838383" stroke-width="1.51"/><path d="M207,440L334,441L351,336Z" fill="#c9c9c9" stroke="#c9c9c9" stroke-width="1.51"/><path d="M207,291L207,440L351,336Z" fill="#cfcfcf" stroke="#cfcfcf" stroke-width="1.51"/><path d="M324,109L210,201L355,201Z" fill="#dcdcdc" stroke="#dcdcdc" stroke-width="1.51"/><path d="M207,291L351,336L355,201Z" fill="#d3d3d3" stroke="#d3d3d3" stroke-width="1.51"/><path d="M210,201L207,291L355,201Z" fill="#d9d9d9" stroke="#d9d9d9" stroke-width="1.51"/><path d="M231,-150L323,-20L355,-132Z" fill="#ebebeb" stroke="#ebebeb" stroke-width="1.51"/><path d="M237,1021L223,1101L350,1089Z" fill="#818181" stroke="#818181" stroke-width="1.51"/><path d="M231,-150L193,-40L323,-20Z" fill="#ececec" stroke="#ececec" stroke-width="1.51"/><path d="M228,905L237,1021L327,914Z" fill="#939393" stroke="#939393" stroke-width="1.51"/><path d="M332,658L204,742L339,744Z" fill="#a9a9a9" stroke="#a9a9a9" stroke-width="1.51"/><path d="M202,643L204,742L332,658Z" fill="#aeaeae" stroke="#aeaeae" stroke-width="1.51"/><path d="M213,89L210,201L324,109Z" fill="#e0e0e0" stroke="#e0e0e0" stroke-width="1.51"/><path d="M207,440L303,519L334,441Z" fill="#c3c3c3" stroke="#c3c3c3" stroke-width="1.51"/><path d="M207,440L236,525L303,519Z" fill="#c1c1c1" stroke="#c1c1c1" stroke-width="1.51"/><path d="M237,1200L97,1235L307,1253Z" fill="#727272" stroke="#727272" stroke-width="1.51"/><path d="M193,-40L213,89L323,-20Z" fill="#e8e8e8" stroke="#e8e8e8" stroke-width="1.51"/><path d="M207,291L100,399L207,440Z" fill="#d1d1d1" stroke="#d1d1d1" stroke-width="1.51"/><path d="M193,-40L96,63L213,89Z" fill="#e9e9e9" stroke="#e9e9e9" stroke-width="1.51"/><path d="M204,742L99,785L228,905Z" fill="#a4a4a4" stroke="#a4a4a4" stroke-width="1.51"/><path d="M99,785L78,867L228,905Z" fill="#a2a2a2" stroke="#a2a2a2" stroke-width="1.51"/><path d="M92,-124L193,-40L231,-150Z" fill="#f0f0f0" stroke="#f0f0f0" stroke-width="1.51"/><path d="M207,440L85,525L236,525Z" fill="#c4c4c4" stroke="#c4c4c4" stroke-width="1.51"/><path d="M85,525L202,643L236,525Z" fill="#bdbdbd" stroke="#bdbdbd" stroke-width="1.51"/><path d="M228,905L125,982L237,1021Z" fill="#929292" stroke="#929292" stroke-width="1.51"/><path d="M125,982L223,1101L237,1021Z" fill="#888888" stroke="#888888" stroke-width="1.51"/><path d="M223,1101L84,1110L237,1200Z" fill="#7c7c7c" stroke="#7c7c7c" stroke-width="1.51"/><path d="M84,1110L97,1235L237,1200Z" fill="#797979" stroke="#797979" stroke-width="1.51"/><path d="M118,-33L96,63L193,-40Z" fill="#ededed" stroke="#ededed" stroke-width="1.51"/><path d="M202,643L118,684L204,742Z" fill="#b0b0b0" stroke="#b0b0b0" stroke-width="1.51"/><path d="M86,206L210,201L213,89Z" fill="#e1e1e1" stroke="#e1e1e1" stroke-width="1.51"/><path d="M125,982L84,1110L223,1101Z" fill="#868686" stroke="#868686" stroke-width="1.51"/><path d="M78,337L100,399L207,291Z" fill="#d6d6d6" stroke="#d6d6d6" stroke-width="1.51"/><path d="M96,63L86,206L213,89Z" fill="#e6e6e6" stroke="#e6e6e6" stroke-width="1.51"/><path d="M78,867L125,982L228,905Z" fill="#9b9b9b" stroke="#9b9b9b" stroke-width="1.51"/><path d="M86,206L207,291L210,201Z" fill="#dcdcdc" stroke="#dcdcdc" stroke-width="1.51"/><path d="M92,-124L118,-33L193,-40Z" fill="#f0f0f0" stroke="#f0f0f0" stroke-width="1.51"/><path d="M85,525L118,684L202,643Z" fill="#b9b9b9" stroke="#b9b9b9" stroke-width="1.51"/><path d="M100,399L85,525L207,440Z" fill="#cacaca" stroke="#cacaca" stroke-width="1.51"/><path d="M86,206L78,337L207,291Z" fill="#dbdbdb" stroke="#dbdbdb" stroke-width="1.51"/><path d="M118,684L99,785L204,742Z" fill="#adadad" stroke="#adadad" stroke-width="1.51"/><path d="M-42,974L6,1119L84,1110Z" fill="#8a8a8a" stroke="#8a8a8a" stroke-width="1.51"/><path d="M3,284L78,337L86,206Z" fill="#dddddd" stroke="#dddddd" stroke-width="1.51"/><path d="M11,199L86,206L96,63Z" fill="#e6e6e6" stroke="#e6e6e6" stroke-width="1.51"/><path d="M84,1110L6,1119L97,1235Z" fill="#7e7e7e" stroke="#7e7e7e" stroke-width="1.51"/><path d="M-1,433L85,525L100,399Z" fill="#cccccc" stroke="#cccccc" stroke-width="1.51"/><path d="M5,766L99,785L118,684Z" fill="#aeaeae" stroke="#aeaeae" stroke-width="1.51"/><path d="M85,525L10,653L118,684Z" fill="#bbbbbb" stroke="#bbbbbb" stroke-width="1.51"/><path d="M-9,-45L96,63L118,-33Z" fill="#f0f0f0" stroke="#f0f0f0" stroke-width="1.51"/><path d="M92,-124L-9,-45L118,-33Z" fill="#f3f3f3" stroke="#f3f3f3" stroke-width="1.51"/><path d="M-42,974L84,1110L125,982Z" fill="#8f8f8f" stroke="#8f8f8f" stroke-width="1.51"/><path d="M78,867L-42,974L125,982Z" fill="#9a9a9a" stroke="#9a9a9a" stroke-width="1.51"/><path d="M10,653L5,766L118,684Z" fill="#b4b4b4" stroke="#b4b4b4" stroke-width="1.51"/><path d="M-47,899L-42,974L78,867Z" fill="#a0a0a0" stroke="#a0a0a0" stroke-width="1.51"/><path d="M-13,517L10,653L85,525Z" fill="#c1c1c1" stroke="#c1c1c1" stroke-width="1.51"/><path d="M-1,433L-13,517L85,525Z" fill="#c9c9c9" stroke="#c9c9c9" stroke-width="1.51"/><path d="M11,199L3,284L86,206Z" fill="#e1e1e1" stroke="#e1e1e1" stroke-width="1.51"/><path d="M-12,-132L-9,-45L92,-124Z" fill="#f5f5f5" stroke="#f5f5f5" stroke-width="1.51"/><path d="M-41,50L11,199L96,63Z" fill="#eaeaea" stroke="#eaeaea" stroke-width="1.51"/><path d="M-9,-45L-41,50L96,63Z" fill="#efefef" stroke="#efefef" stroke-width="1.51"/><path d="M6,1119L-33,1245L97,1235Z" fill="#7b7b7b" stroke="#7b7b7b" stroke-width="1.51"/><path d="M5,766L78,867L99,785Z" fill="#a9a9a9" stroke="#a9a9a9" stroke-width="1.51"/><path d="M78,337L-1,433L100,399Z" fill="#d3d3d3" stroke="#d3d3d3" stroke-width="1.51"/><path d="M5,766L-47,899L78,867Z" fill="#a6a6a6" stroke="#a6a6a6" stroke-width="1.51"/><path d="M3,284L-1,433L78,337Z" fill="#d8d8d8" stroke="#d8d8d8" stroke-width="1.51"/><path d="M-123,989L-117,1132L-42,974Z" fill="#919191" stroke="#919191" stroke-width="1.51"/><path d="M-118,424L-1,433L3,284Z" fill="#d7d7d7" stroke="#d7d7d7" stroke-width="1.51"/><path d="M-148,310L-118,424L3,284Z" fill="#dcdcdc" stroke="#dcdcdc" stroke-width="1.51"/><path d="M-123,773L-47,899L5,766Z" fill="#ababab" stroke="#ababab" stroke-width="1.51"/><path d="M-117,1132L-33,1245L6,1119Z" fill="#808080" stroke="#808080" stroke-width="1.51"/><path d="M-42,974L-117,1132L6,1119Z" fill="#8a8a8a" stroke="#8a8a8a" stroke-width="1.51"/><path d="M-13,517L-114,557L10,653Z" fill="#c2c2c2" stroke="#c2c2c2" stroke-width="1.51"/><path d="M-114,557L-144,640L10,653Z" fill="#bebebe" stroke="#bebebe" stroke-width="1.51"/><path d="M-123,773L5,766L10,653Z" fill="#b2b2b2" stroke="#b2b2b2" stroke-width="1.51"/><path d="M-144,640L-123,773L10,653Z" fill="#b8b8b8" stroke="#b8b8b8" stroke-width="1.51"/><path d="M-41,50L-114,94L11,199Z" fill="#ebebeb" stroke="#ebebeb" stroke-width="1.51"/><path d="M-114,94L-116,185L11,199Z" fill="#e9e9e9" stroke="#e9e9e9" stroke-width="1.51"/><path d="M-116,185L3,284L11,199Z" fill="#e3e3e3" stroke="#e3e3e3" stroke-width="1.51"/><path d="M-118,424L-13,517L-1,433Z" fill="#cecece" stroke="#cecece" stroke-width="1.51"/><path d="M-116,185L-148,310L3,284Z" fill="#e2e2e2" stroke="#e2e2e2" stroke-width="1.51"/><path d="M-12,-132L-144,-22L-9,-45Z" fill="#f6f6f6" stroke="#f6f6f6" stroke-width="1.51"/><path d="M-123,773L-104,901L-47,899Z" fill="#a7a7a7" stroke="#a7a7a7" stroke-width="1.51"/><path d="M-117,1132L-119,1249L-33,1245Z" fill="#7d7d7d" stroke="#7d7d7d" stroke-width="1.51"/><path d="M-118,424L-114,557L-13,517Z" fill="#cbcbcb" stroke="#cbcbcb" stroke-width="1.51"/><path d="M-152,-170L-144,-22L-12,-132Z" fill="#f8f8f8" stroke="#f8f8f8" stroke-width="1.51"/><path d="M-144,-22L-41,50L-9,-45Z" fill="#f3f3f3" stroke="#f3f3f3" stroke-width="1.51"/><path d="M-47,899L-104,901L-42,974Z" fill="#9f9f9f" stroke="#9f9f9f" stroke-width="1.51"/><path d="M-104,901L-123,989L-42,974Z" fill="#9c9c9c" stroke="#9c9c9c" stroke-width="1.51"/><path d="M-144,-22L-114,94L-41,50Z" fill="#f1f1f1" stroke="#f1f1f1" stroke-width="1.51"/><path d="M-123,773L-123,989L-104,901Z" fill="#a5a5a5" stroke="#a5a5a5" stroke-width="1.51"/><path d="M-144,-22L-148,310L-116,185Z" fill="#ebebeb" stroke="#ebebeb" stroke-width="1.51"/><path d="M-118,424L-144,640L-114,557Z" fill="#c8c8c8" stroke="#c8c8c8" stroke-width="1.51"/><path d="M-144,-22L-116,185L-114,94Z" fill="#efefef" stroke="#efefef" stroke-width="1.51"/><path d="M-148,310L-144,640L-118,424Z" fill="#d1d1d1" stroke="#d1d1d1" stroke-width="1.51"/><path d="M-123,989L-119,1249L-117,1132Z" fill="#858585" stroke="#858585" stroke-width="1.51"/><path d="M-144,640L-123,989L-123,773Z" fill="#aeaeae" stroke="#aeaeae" stroke-width="1.51"/><path d="M-123,989L-144,640L-119,1249Z" fill="#9d9d9d" stroke="#9d9d9d" stroke-width="1.51"/><path d="M-152,-170L-148,310L-144,-22Z" fill="#f3f3f3" stroke="#f3f3f3" stroke-width="1.51"/></svg>